<svg width="20" height="20" viewBox="0 0 20 20" fill="none" xmlns="http://www.w3.org/2000/svg">
<g clip-path="url(#clip0_639_6252)">
<path d="M12.3563 5.28546L13.5355 4.10712L9.99962 0.571289L6.46379 4.10796L7.64296 5.28629L9.99962 2.92879L12.3563 5.28546ZM4.10712 13.5355L5.28546 12.3563L2.92879 9.99962L5.28546 7.64296L4.10796 6.46379L0.571289 9.99962L4.10712 13.5355ZM6.46379 15.8921L9.99962 19.428L13.5355 15.8921L12.3563 14.7138L9.99962 17.0705L7.64296 14.7138L6.46379 15.8921ZM14.7138 7.64296L17.0705 9.99962L14.7138 12.3563L15.8921 13.5355L19.428 9.99962L15.8913 6.46379L14.7138 7.64296Z" fill="#505050"/>
<path fill-rule="evenodd" clip-rule="evenodd" d="M9.99935 6.66602C10.8834 6.66602 11.7313 7.0172 12.3564 7.64233C12.9815 8.26745 13.3327 9.11529 13.3327 9.99935C13.3327 10.8834 12.9815 11.7313 12.3564 12.3564C11.7313 12.9815 10.8834 13.3327 9.99935 13.3327C9.11529 13.3327 8.26745 12.9815 7.64233 12.3564C7.0172 11.7313 6.66602 10.8834 6.66602 9.99935C6.66602 9.11529 7.0172 8.26745 7.64233 7.64233C8.26745 7.0172 9.11529 6.66602 9.99935 6.66602ZM9.99935 8.33268C10.4414 8.33268 10.8653 8.50828 11.1779 8.82084C11.4904 9.1334 11.666 9.55732 11.666 9.99935C11.666 10.4414 11.4904 10.8653 11.1779 11.1779C10.8653 11.4904 10.4414 11.666 9.99935 11.666C9.55732 11.666 9.1334 11.4904 8.82084 11.1779C8.50828 10.8653 8.33268 10.4414 8.33268 9.99935C8.33268 9.55732 8.50828 9.1334 8.82084 8.82084C9.1334 8.50828 9.55732 8.33268 9.99935 8.33268Z" fill="#505050"/>
</g>
<defs>
<clipPath id="clip0_639_6252">
<rect width="20" height="20" fill="white"/>
</clipPath>
</defs>
</svg>
