<svg width="20" height="20" viewBox="0 0 20 20" fill="none" xmlns="http://www.w3.org/2000/svg">
<path d="M9.95866 15.0003C10.2503 15.0003 10.497 14.8995 10.6987 14.6978C10.9003 14.4962 11.0009 14.2498 11.0003 13.9587C10.9998 13.6676 10.8992 13.4209 10.6987 13.2187C10.4981 13.0164 10.2514 12.9159 9.95866 12.917C9.66588 12.9181 9.41949 13.0189 9.21949 13.2195C9.01949 13.4201 8.91866 13.6664 8.91699 13.9587C8.91533 14.2509 9.01616 14.4976 9.21949 14.6987C9.42283 14.8998 9.66921 15.0003 9.95866 15.0003ZM9.20866 11.792H10.7503C10.7503 11.3337 10.8025 10.9726 10.907 10.7087C11.0114 10.4448 11.3064 10.0837 11.792 9.62533C12.1531 9.26422 12.4378 8.92033 12.6462 8.59366C12.8545 8.267 12.9587 7.87477 12.9587 7.417C12.9587 6.63922 12.6739 6.042 12.1045 5.62533C11.535 5.20866 10.8614 5.00033 10.0837 5.00033C9.29199 5.00033 8.64977 5.20866 8.15699 5.62533C7.66422 6.042 7.32033 6.542 7.12533 7.12533L8.50033 7.667C8.56977 7.417 8.72616 7.14616 8.96949 6.8545C9.21283 6.56283 9.58422 6.417 10.0837 6.417C10.5281 6.417 10.8614 6.53866 11.0837 6.782C11.3059 7.02533 11.417 7.29255 11.417 7.58366C11.417 7.86144 11.3337 8.122 11.167 8.36533C11.0003 8.60866 10.792 8.83422 10.542 9.042C9.93088 9.58366 9.55588 9.99338 9.41699 10.2712C9.2781 10.5489 9.20866 11.0559 9.20866 11.792ZM10.0003 18.3337C8.84755 18.3337 7.76422 18.1151 6.75033 17.6778C5.73644 17.2406 4.85449 16.6467 4.10449 15.8962C3.35449 15.1456 2.76088 14.2637 2.32366 13.2503C1.88644 12.237 1.66755 11.1537 1.66699 10.0003C1.66644 8.847 1.88533 7.76366 2.32366 6.75033C2.76199 5.737 3.3556 4.85505 4.10449 4.1045C4.85338 3.35394 5.73533 2.76033 6.75033 2.32366C7.76533 1.887 8.84866 1.66811 10.0003 1.667C11.152 1.66589 12.2353 1.88477 13.2503 2.32366C14.2653 2.76255 15.1473 3.35616 15.8962 4.1045C16.645 4.85283 17.2389 5.73477 17.6778 6.75033C18.1167 7.76589 18.3353 8.84922 18.3337 10.0003C18.332 11.1514 18.1131 12.2348 17.677 13.2503C17.2409 14.2659 16.6473 15.1478 15.8962 15.8962C15.145 16.6445 14.2631 17.2384 13.2503 17.6778C12.2375 18.1173 11.1542 18.3359 10.0003 18.3337ZM10.0003 16.667C11.8614 16.667 13.4378 16.0212 14.7295 14.7295C16.0212 13.4378 16.667 11.8614 16.667 10.0003C16.667 8.13922 16.0212 6.56283 14.7295 5.27116C13.4378 3.9795 11.8614 3.33366 10.0003 3.33366C8.13922 3.33366 6.56283 3.9795 5.27116 5.27116C3.97949 6.56283 3.33366 8.13922 3.33366 10.0003C3.33366 11.8614 3.97949 13.4378 5.27116 14.7295C6.56283 16.0212 8.13922 16.667 10.0003 16.667Z" fill="#505050"/>
</svg>
