<svg width="20" height="20" viewBox="0 0 20 20" fill="none" xmlns="http://www.w3.org/2000/svg">
<g clip-path="url(#clip0_896_1736)">
<path d="M9.99967 7.49967C11.3747 7.49967 12.4997 8.62467 12.4997 9.99967C12.4997 11.3747 11.3747 12.4997 9.99967 12.4997C8.62467 12.4997 7.49967 11.3747 7.49967 9.99967C7.49967 8.62467 8.62467 7.49967 9.99967 7.49967ZM9.99967 5.83301C7.69967 5.83301 5.83301 7.69967 5.83301 9.99967C5.83301 12.2997 7.69967 14.1663 9.99967 14.1663C12.2997 14.1663 14.1663 12.2997 14.1663 9.99967C14.1663 7.69967 12.2997 5.83301 9.99967 5.83301ZM1.66634 10.833H3.33301C3.79134 10.833 4.16634 10.458 4.16634 9.99967C4.16634 9.54134 3.79134 9.16634 3.33301 9.16634H1.66634C1.20801 9.16634 0.833008 9.54134 0.833008 9.99967C0.833008 10.458 1.20801 10.833 1.66634 10.833ZM16.6663 10.833H18.333C18.7913 10.833 19.1663 10.458 19.1663 9.99967C19.1663 9.54134 18.7913 9.16634 18.333 9.16634H16.6663C16.208 9.16634 15.833 9.54134 15.833 9.99967C15.833 10.458 16.208 10.833 16.6663 10.833ZM9.16634 1.66634V3.33301C9.16634 3.79134 9.54134 4.16634 9.99967 4.16634C10.458 4.16634 10.833 3.79134 10.833 3.33301V1.66634C10.833 1.20801 10.458 0.833008 9.99967 0.833008C9.54134 0.833008 9.16634 1.20801 9.16634 1.66634ZM9.16634 16.6663V18.333C9.16634 18.7913 9.54134 19.1663 9.99967 19.1663C10.458 19.1663 10.833 18.7913 10.833 18.333V16.6663C10.833 16.208 10.458 15.833 9.99967 15.833C9.54134 15.833 9.16634 16.208 9.16634 16.6663ZM4.99134 3.81634C4.91425 3.73909 4.82267 3.6778 4.72186 3.63598C4.62105 3.59416 4.51298 3.57264 4.40384 3.57264C4.2947 3.57264 4.18663 3.59416 4.08582 3.63598C3.98501 3.6778 3.89344 3.73909 3.81634 3.81634C3.73909 3.89344 3.6778 3.98501 3.63598 4.08582C3.59416 4.18663 3.57264 4.2947 3.57264 4.40384C3.57264 4.51298 3.59416 4.62105 3.63598 4.72186C3.6778 4.82267 3.73909 4.91425 3.81634 4.99134L4.69967 5.87467C5.02467 6.19967 5.55801 6.19967 5.87467 5.87467C6.19134 5.54967 6.19967 5.01634 5.87467 4.69967L4.99134 3.81634ZM15.2997 14.1247C15.2226 14.0474 15.131 13.9861 15.0302 13.9443C14.9294 13.9025 14.8213 13.881 14.7122 13.881C14.603 13.881 14.495 13.9025 14.3942 13.9443C14.2933 13.9861 14.2018 14.0474 14.1247 14.1247C14.0474 14.2018 13.9861 14.2933 13.9443 14.3942C13.9025 14.495 13.881 14.603 13.881 14.7122C13.881 14.8213 13.9025 14.9294 13.9443 15.0302C13.9861 15.131 14.0474 15.2226 14.1247 15.2997L15.008 16.183C15.333 16.508 15.8663 16.508 16.183 16.183C16.2603 16.1059 16.3216 16.0143 16.3634 15.9135C16.4052 15.8127 16.4267 15.7046 16.4267 15.5955C16.4267 15.4864 16.4052 15.3783 16.3634 15.2775C16.3216 15.1767 16.2603 15.0851 16.183 15.008L15.2997 14.1247ZM16.183 4.99134C16.2603 4.91425 16.3216 4.82267 16.3634 4.72186C16.4052 4.62105 16.4267 4.51298 16.4267 4.40384C16.4267 4.2947 16.4052 4.18663 16.3634 4.08582C16.3216 3.98501 16.2603 3.89344 16.183 3.81634C16.1059 3.73909 16.0143 3.6778 15.9135 3.63598C15.8127 3.59416 15.7046 3.57264 15.5955 3.57264C15.4864 3.57264 15.3783 3.59416 15.2775 3.63598C15.1767 3.6778 15.0851 3.73909 15.008 3.81634L14.1247 4.69967C13.7997 5.02467 13.7997 5.55801 14.1247 5.87467C14.4497 6.19134 14.983 6.19967 15.2997 5.87467L16.183 4.99134ZM5.87467 15.2997C5.95193 15.2226 6.01322 15.131 6.05504 15.0302C6.09685 14.9294 6.11838 14.8213 6.11838 14.7122C6.11838 14.603 6.09685 14.495 6.05504 14.3942C6.01322 14.2933 5.95193 14.2018 5.87467 14.1247C5.79758 14.0474 5.70601 13.9861 5.6052 13.9443C5.50438 13.9025 5.39631 13.881 5.28717 13.881C5.17803 13.881 5.06997 13.9025 4.96915 13.9443C4.86834 13.9861 4.77677 14.0474 4.69967 14.1247L3.81634 15.008C3.49134 15.333 3.49134 15.8663 3.81634 16.183C4.14134 16.4997 4.67467 16.508 4.99134 16.183L5.87467 15.2997Z" fill="#505050"/>
</g>
<defs>
<clipPath id="clip0_896_1736">
<rect width="20" height="20" fill="white"/>
</clipPath>
</defs>
</svg>
