<svg width="15" height="16" viewBox="0 0 15 16" fill="none" xmlns="http://www.w3.org/2000/svg">
<g clip-path="url(#clip0_639_6263)">
<path d="M10.625 3C10.9404 2.9999 11.2441 3.119 11.4753 3.33344C11.7066 3.54787 11.8482 3.84178 11.8719 4.15625L11.875 4.25V5.5H12.5C12.8154 5.4999 13.1191 5.619 13.3503 5.83344C13.5816 6.04787 13.7232 6.34178 13.7469 6.65625L13.75 6.75V12.375C13.7501 12.6904 13.631 12.9941 13.4166 13.2253C13.2021 13.4566 12.9082 13.5982 12.5937 13.6219L12.5 13.625H10C9.79738 13.6251 9.59779 13.5758 9.41846 13.4815C9.23912 13.3872 9.08542 13.2507 8.97062 13.0838L8.9175 13H2.5C2.18464 13.0001 1.8809 12.881 1.64966 12.6666C1.41842 12.4521 1.27678 12.1582 1.25313 11.8437L1.25 11.75V4.25C1.2499 3.93464 1.369 3.6309 1.58344 3.39966C1.79787 3.16842 2.09178 3.02678 2.40625 3.00313L2.5 3H10.625ZM12.5 6.75H10V12.375H12.5V6.75ZM10.625 4.25H2.5V11.75H8.75V6.75C8.75 6.41848 8.8817 6.10054 9.11612 5.86612C9.35054 5.6317 9.66848 5.5 10 5.5H10.625V4.25Z" fill="#505050"/>
</g>
<defs>
<clipPath id="clip0_639_6263">
<rect width="15" height="15" fill="white" transform="translate(0 0.5)"/>
</clipPath>
</defs>
</svg>
