<svg width="20" height="20" viewBox="0 0 20 20" fill="none" xmlns="http://www.w3.org/2000/svg">
<path d="M10.0002 0.704102L18.0502 5.35243V14.6474L10.0002 19.2958L1.9502 14.6474V5.35243L10.0002 0.704102ZM10.0002 2.6291L3.61686 6.3141V13.6858L10.0002 17.3708L16.3835 13.6858V6.3141L10.0002 2.6291ZM10.0002 7.49993C9.33715 7.49993 8.70127 7.76333 8.23243 8.23217C7.76359 8.70101 7.5002 9.33689 7.5002 9.99993C7.5002 10.663 7.76359 11.2989 8.23243 11.7677C8.70127 12.2365 9.33715 12.4999 10.0002 12.4999C10.6632 12.4999 11.2991 12.2365 11.768 11.7677C12.2368 11.2989 12.5002 10.663 12.5002 9.99993C12.5002 9.33689 12.2368 8.70101 11.768 8.23217C11.2991 7.76333 10.6632 7.49993 10.0002 7.49993ZM5.83353 9.99993C5.83353 8.89487 6.27252 7.83506 7.05392 7.05366C7.83532 6.27225 8.89513 5.83327 10.0002 5.83327C11.1053 5.83327 12.1651 6.27225 12.9465 7.05366C13.7279 7.83506 14.1669 8.89487 14.1669 9.99993C14.1669 11.105 13.7279 12.1648 12.9465 12.9462C12.1651 13.7276 11.1053 14.1666 10.0002 14.1666C8.89513 14.1666 7.83532 13.7276 7.05392 12.9462C6.27252 12.1648 5.83353 11.105 5.83353 9.99993Z" fill="#505050"/>
</svg>
